PathFileType	4	(X/Y/Z)	/Users/itak/Documents/Research/Walk-IL/dataset/trc/00007_00004.trc
DataRate	CameraRate	NumFrames	NumMarkers	Units	OrigDataRate	OrigDataStartFrame	OrigNumFrames
100.000000	100.000000	4	53	mm	100.000000	217	580
Frame#	Time	RPSI			LPSI			L3			STRN			T10			C7			CLAV			RBAK			LBAK			LSHO			LUPA			LAEL			LAOL			LWTS			LWPS			LFRA			LIFD			LHPS			LHTS			RSHO			RUPA			RAEL			RAOL			RWTS			RWPS			RFRA			RIFD			RHTS			RHPS			RBHD			LFHD			RFHD			LBHD			LHIP			RHIP			RASI			LASI			LKNE			LTHI			LANK			LTIP			LTOE			LMT1			LMT5			LHEE			RKNE			RTHI			RANK			RTIP			RTOE			RMT1			RMT5			RHEE			
		X1	Y1	Z1	X2	Y2	Z2	X3	Y3	Z3	X4	Y4	Z4	X5	Y5	Z5	X6	Y6	Z6	X7	Y7	Z7	X8	Y8	Z8	X9	Y9	Z9	X10	Y10	Z10	X11	Y11	Z11	X12	Y12	Z12	X13	Y13	Z13	X14	Y14	Z14	X15	Y15	Z15	X16	Y16	Z16	X17	Y17	Z17	X18	Y18	Z18	X19	Y19	Z19	X20	Y20	Z20	X21	Y21	Z21	X22	Y22	Z22	X23	Y23	Z23	X24	Y24	Z24	X25	Y25	Z25	X26	Y26	Z26	X27	Y27	Z27	X28	Y28	Z28	X29	Y29	Z29	X30	Y30	Z30	X31	Y31	Z31	X32	Y32	Z32	X33	Y33	Z33	X34	Y34	Z34	X35	Y35	Z35	X36	Y36	Z36	X37	Y37	Z37	X38	Y38	Z38	X39	Y39	Z39	X40	Y40	Z40	X41	Y41	Z41	X42	Y42	Z42	X43	Y43	Z43	X44	Y44	Z44	X45	Y45	Z45	X46	Y46	Z46	X47	Y47	Z47	X48	Y48	Z48	X49	Y49	Z49	X50	Y50	Z50	X51	Y51	Z51	X52	Y52	Z52	X53	Y53	Z53	

218	2.17	-872.2902221679688	1047.141723632812	-184.7261047363281	-872.9900512695312	1043.890869140625	-348.5224609375	-877.6280517578125	1114.964233398438	-272.3271484375	-645.69921875	1297.16162109375	-269.1427917480469	-895.7263793945312	1258.006103515625	-276.6400146484375	-837.83642578125	1522.626586914062	-295.7012023925781	-683.78076171875	1424.010620117188	-280.7333679199219	-898.0233154296875	1391.445068359375	-212.1965484619141	-852.7720947265625	1478.326904296875	-392.6647644042969	-747.1681518554688	1479.465087890625	-462.6524047851562	-782.2930908203125	1353.513793945312	-537.2999267578125	-802.7210693359375	1137.3994140625	-558.3389282226562	-857.884033203125	1130.07421875	-467.8680114746094	-728.9417114257812	881.147216796875	-501.5265197753906	-808.0285034179688	870.2319946289062	-540.5277709960938	-797.639892578125	1020.792785644531	-562.7915649414062	-711.14208984375	697.3480834960938	-479.1363525390625	-778.8497924804688	779.1607666015625	-539.2252197265625	-712.5081176757812	786.824951171875	-514.918212890625	-767.1204223632812	1512.589721679688	-118.2760162353516	-785.4813842773438	1444.56689453125	-42.99785232543945	-836.0848388671875	1180.402954101562	-8.138711929321289	-838.2626342773438	1147.635375976562	-103.1227264404297	-711.980712890625	917.2747192382812	-25.8109130859375	-778.5020141601562	906.66015625	38.36648559570312	-825.2908935546875	1104.583618164062	11.23100757598877	-699.404052734375	731.4118041992188	-33.06978988647461	-682.4402465820312	806.984130859375	-4.867361068725586	-740.1119995117188	805.93994140625	43.7844123840332	-781.83349609375	1699.78955078125	-357.1372985839844	-603.2418212890625	1712.176635742188	-231.5754852294922	-601.4004516601562	1711.455078125	-329.9692687988281	-776.8563232421875	1696.454956054688	-212.4729766845703	-765.951416015625	951.5089721679688	-455.6280822753906	-766.53662109375	935.5648193359375	-81.66867828369141	-658.5789794921875	967.4212036132812	-149.2464294433594	-657.3807373046875	995.3053588867188	-383.734619140625	-589.9093017578125	536.0164794921875	-387.73583984375	-655.9986572265625	657.2200927734375	-433.1582336425781	-649.1012573242188	37.34747314453125	-392.7838134765625	-638.0206298828125	286.3718872070312	-408.3526611328125	-443.0623168945312	46.43186950683594	-292.1740112304688	-503.8632507324219	51.8628044128418	-284.9610595703125	-523.3743896484375	39.40011596679688	-389.2295837402344	-725.393310546875	45.04350662231445	-349.8675537109375	-805.0974731445312	498.6581420898438	-106.6560363769531	-760.232421875	769.718994140625	-84.15631866455078	-1175.94384765625	144.8251037597656	-131.0898742675781	-890.1301879882812	392.9667053222656	-105.6609954833984	-995.9962158203125	42.56133651733398	-180.9469604492188	-1039.872192382812	68.00007629394531	-206.905029296875	-1059.501831054688	54.43076705932617	-111.699348449707	-1216.692504882812	184.0400848388672	-174.4579925537109	
219	2.18	-864.701904296875	1048.030395507812	-186.4921875	-865.3319091796875	1045.01416015625	-350.289306640625	-869.9634399414062	1116.078247070312	-274.29443359375	-638.1422729492188	1298.415893554688	-271.1914978027344	-888.1499633789062	1258.941040039062	-278.9591674804688	-830.5946655273438	1523.604858398438	-297.9931945800781	-676.3991088867188	1425.2236328125	-282.8164978027344	-890.7511596679688	1392.36669921875	-214.6162872314453	-845.3032836914062	1479.306518554688	-394.9596862792969	-739.6494750976562	1480.744506835938	-464.7463684082031	-774.3758544921875	1354.8486328125	-539.7312622070312	-794.0523071289062	1138.672241210938	-561.0076293945312	-849.6904907226562	1131.104736328125	-470.8415832519531	-718.7769775390625	883.0924682617188	-503.7655639648438	-797.49365234375	871.4747314453125	-543.1622314453125	-788.2142333984375	1022.1064453125	-565.4317016601562	-699.6172485351562	699.4356689453125	-481.2864074707031	-767.7193603515625	780.694580078125	-541.7130737304688	-701.5709228515625	788.8496704101562	-517.0398559570312	-760.0907592773438	1513.658081054688	-120.5078964233398	-778.5418090820312	1445.644409179688	-45.28830337524414	-829.44482421875	1181.641235351562	-10.49235057830811	-831.4104614257812	1148.833374023438	-105.4552993774414	-706.4242553710938	917.9873657226562	-27.62578201293945	-773.0796508789062	907.7764892578125	36.49549865722656	-818.9210205078125	1105.86962890625	8.96602725982666	-694.9369506835938	732.0065307617188	-34.79006195068359	-677.5505981445312	807.4856567382812	-6.571173191070557	-735.2438354492188	806.8405151367188	42.04357528686523	-774.6226196289062	1700.994018554688	-359.2785034179688	-596.302734375	1713.312255859375	-233.3304138183594	-594.2760009765625	1712.64208984375	-331.7311706542969	-769.9497680664062	1697.515014648438	-214.60205078125	-758.634765625	952.5145263671875	-457.4926147460938	-758.547119140625	936.4200439453125	-83.72236633300781	-650.873779296875	968.74560546875	-151.3944549560547	-649.8128662109375	996.1990356445312	-385.8634948730469	-586.0985107421875	535.4741821289062	-388.7601013183594	-650.8482666015625	657.3937377929688	-434.4131774902344	-648.9376220703125	37.07437515258789	-393.0396118164062	-636.0698852539062	286.1314086914062	-409.1293640136719	-442.9391479492188	45.77898788452148	-292.1066284179688	-503.7633972167969	51.54810333251953	-285.0454711914062	-523.2339477539062	38.93829345703125	-389.3567810058594	-725.2913818359375	45.09204864501953	-350.2076721191406	-790.1044921875	498.3074340820312	-106.2215270996094	-750.1751708984375	770.5609741210938	-85.508544921875	-1168.340087890625	153.1104125976562	-130.7784423828125	-875.792724609375	393.1690368652344	-105.4883270263672	-993.89404296875	42.01754760742188	-180.8506317138672	-1036.1064453125	70.09236145019531	-206.690673828125	-1056.213500976562	57.95502090454102	-111.3756103515625	-1207.418334960938	193.8699951171875	-174.1319427490234	
220	2.19	-857.2945556640625	1048.807739257812	-188.1425628662109	-857.8529052734375	1046.0634765625	-351.9443054199219	-862.44482421875	1117.148803710938	-276.134765625	-630.6925048828125	1299.567016601562	-273.1805725097656	-880.6776123046875	1259.859741210938	-281.1945495605469	-823.3924560546875	1524.543090820312	-300.2146911621094	-669.07861328125	1426.349731445312	-284.8282165527344	-883.5374145507812	1393.264404296875	-216.9579925537109	-837.8724365234375	1480.247802734375	-397.1875	-732.1492919921875	1481.946899414062	-466.7631530761719	-766.4860229492188	1356.128540039062	-542.1109008789062	-785.4020385742188	1139.897827148438	-563.6768188476562	-841.5715942382812	1132.071899414062	-473.8528747558594	-708.6010131835938	885.0247192382812	-505.9700012207031	-786.9186401367188	872.6900024414062	-545.802490234375	-778.7620239257812	1023.382934570312	-568.0741577148438	-688.010498046875	701.5261840820312	-483.3556823730469	-756.489013671875	782.2098388671875	-544.1685180664062	-690.5586547851562	790.8790283203125	-519.0968017578125	-753.083740234375	1514.658935546875	-122.6603775024414	-771.640869140625	1446.637573242188	-47.50791931152344	-822.8268432617188	1182.77978515625	-12.82868576049805	-824.53466796875	1149.935180664062	-107.7705917358398	-700.7942504882812	918.6405639648438	-29.37507438659668	-767.6353149414062	908.8073120117188	34.63566970825195	-812.5796508789062	1107.057861328125	6.715492248535156	-690.3328857421875	732.5505981445312	-36.38756942749023	-672.5930786132812	807.9453735351562	-8.171784400939941	-730.3507080078125	807.680419921875	40.38285064697266	-767.4422607421875	1702.109008789062	-361.35693359375	-589.3971557617188	1714.403442382812	-235.0402069091797	-587.1871948242188	1713.7802734375	-333.4554748535156	-763.07177734375	1698.4970703125	-216.6759033203125	-751.5052490234375	953.4666748046875	-459.2920227050781	-750.6551513671875	937.1785888671875	-85.67986297607422	-643.3036499023438	969.994384765625	-153.4873657226562	-642.4299926757812	997.003662109375	-387.9534606933594	-582.4404296875	534.9462890625	-389.6755981445312	-645.8701782226562	657.51806640625	-435.6094055175781	-648.7764282226562	36.81076049804688	-393.2700500488281	-634.2127685546875	285.9004516601562	-409.888671875	-442.8667907714844	45.27284240722656	-292.0350646972656	-503.7183532714844	51.33531188964844	-285.1161499023438	-523.1382446289062	38.6032829284668	-389.4714050292969	-725.2277221679688	45.10889434814453	-350.5320129394531	-774.82568359375	497.9515380859375	-105.928596496582	-740.089599609375	771.323486328125	-86.81720733642578	-1160.09130859375	161.6128692626953	-130.6028289794922	-861.0414428710938	393.3700256347656	-105.4800033569336	-990.7801513671875	41.64629745483398	-180.4343414306641	-1031.509765625	72.57252502441406	-206.4573059082031	-1052.147338867188	62.22122573852539	-111.0015258789062	-1197.564086914062	203.6438446044922	-174.0247192382812	
221	2.2	-850.0626220703125	1049.454711914062	-189.6839599609375	-850.5559692382812	1047.028564453125	-353.4940185546875	-855.0659790039062	1118.1640625	-277.8513793945312	-623.3628540039062	1300.610717773438	-275.1014404296875	-873.307861328125	1260.7578125	-283.3438720703125	-816.2332153320312	1525.441528320312	-302.3570251464844	-661.8272094726562	1427.385620117188	-286.7617492675781	-876.384765625	1394.137573242188	-219.2089385986328	-830.4913940429688	1481.146118164062	-399.3402709960938	-724.6822509765625	1483.059814453125	-468.6974182128906	-758.6292724609375	1357.335083007812	-544.42431640625	-776.7743530273438	1141.057739257812	-566.3328857421875	-833.5183715820312	1132.955810546875	-476.8865051269531	-698.4440307617188	886.9067993164062	-508.1301879882812	-776.3192138671875	873.8612670898438	-548.4393920898438	-769.2971801757812	1024.605346679688	-570.7090454101562	-676.3547973632812	703.5900268554688	-485.3388671875	-745.1919555664062	783.6882934570312	-546.5881958007812	-679.48876953125	792.88916015625	-521.0855712890625	-746.100341796875	1515.5908203125	-124.7239990234375	-764.7845458984375	1447.545043945312	-49.64774322509766	-816.23828125	1183.814697265625	-15.13700866699219	-817.6376953125	1150.940185546875	-110.0585632324219	-695.088623046875	919.2369995117188	-31.05511093139648	-762.1697998046875	909.7474975585938	32.77965927124023	-806.2710571289062	1108.141723632812	4.487387180328369	-685.5457763671875	733.04931640625	-37.86404037475586	-667.540283203125	808.3763427734375	-9.666796684265137	-725.419189453125	808.4552001953125	38.782958984375	-760.2920532226562	1703.132202148438	-363.3685302734375	-582.523193359375	1715.442993164062	-236.7005004882812	-580.128662109375	1714.867553710938	-335.1377563476562	-756.2217407226562	1699.405029296875	-218.6903381347656	-744.5488891601562	954.3495483398438	-461.0140075683594	-742.8643798828125	937.8435668945312	-87.53438568115234	-635.8634643554688	971.1637573242188	-155.508544921875	-635.221435546875	997.7258911132812	-389.9862365722656	-578.9281616210938	534.4227905273438	-390.484130859375	-641.0601806640625	657.59130859375	-436.7503051757812	-648.6204223632812	36.56025695800781	-393.4735107421875	-632.4484252929688	285.669677734375	-410.6243896484375	-442.8430480957031	44.86932754516602	-291.9453125	-503.7187194824219	51.19007110595703	-285.163330078125	-523.07177734375	38.36320495605469	-389.5650939941406	-725.1917114257812	45.10401153564453	-350.8376159667969	-759.32373046875	497.6386108398438	-105.8268127441406	-729.9869384765625	772.0213012695312	-88.088623046875	-1151.15869140625	170.1324615478516	-130.5994873046875	-845.9815673828125	393.6291198730469	-105.652717590332	-986.4237060546875	41.6071662902832	-179.6326599121094	-1025.903930664062	75.44124603271484	-206.1590728759766	-1047.07763671875	67.12122344970703	-110.5615844726562	-1187.126831054688	213.1310424804688	-174.1955718994141	
